<mxfile host="app.diagrams.net" modified="2023-09-22T09:37:27.395Z" agent="Mozilla/5.0 (Windows NT 10.0; Win64; x64; rv:109.0) Gecko/20100101 Firefox/117.0" etag="3qzh6VvLSaXopiRghqnY" version="21.7.0" type="device">
  <diagram name="Pagina-1" id="mETDQKEhh33VIil_YAIY">
    <mxGraphModel dx="819" dy="401" grid="1" gridSize="10" guides="1" tooltips="1" connect="1" arrows="1" fold="1" page="1" pageScale="1" pageWidth="827" pageHeight="1169" math="0" shadow="0">
      <root>
        <mxCell id="0" />
        <mxCell id="1" parent="0" />
        <mxCell id="AFoxFzemWGuV3oYDkwgm-1" value="" style="ellipse;whiteSpace=wrap;html=1;" parent="1" vertex="1">
          <mxGeometry x="200" y="300" width="150" height="150" as="geometry" />
        </mxCell>
        <mxCell id="AFoxFzemWGuV3oYDkwgm-2" value="" style="ellipse;fillStyle=auto;fillColor=#99CCFF;" parent="1" vertex="1">
          <mxGeometry x="280" y="340" width="10" height="10" as="geometry" />
        </mxCell>
        <mxCell id="AFoxFzemWGuV3oYDkwgm-3" value="" style="ellipse;fillColor=#99CCFF;" parent="1" vertex="1">
          <mxGeometry x="280" y="400" width="10" height="10" as="geometry" />
        </mxCell>
        <mxCell id="AFoxFzemWGuV3oYDkwgm-4" value="U&amp;nbsp; " style="text;html=1;strokeColor=none;fillColor=none;align=right;verticalAlign=middle;whiteSpace=wrap;rounded=0;fontFamily=Times New Roman;fontSize=15;" parent="1" vertex="1">
          <mxGeometry x="240" y="330" width="40" height="30" as="geometry" />
        </mxCell>
        <mxCell id="AFoxFzemWGuV3oYDkwgm-5" value="&lt;div align=&quot;right&quot;&gt;&lt;font style=&quot;font-size: 15px;&quot; face=&quot;Times New Roman&quot;&gt;&amp;nbsp;U&lt;/font&gt;&lt;font style=&quot;font-size: 15px;&quot; face=&quot;Times New Roman&quot;&gt;+ΔU&amp;nbsp; &lt;br&gt;&lt;/font&gt;&lt;/div&gt;" style="text;html=1;strokeColor=none;fillColor=none;align=right;verticalAlign=middle;whiteSpace=wrap;rounded=0;" parent="1" vertex="1">
          <mxGeometry x="230" y="390" width="50" height="30" as="geometry" />
        </mxCell>
        <mxCell id="AFoxFzemWGuV3oYDkwgm-6" value="" style="ellipse;whiteSpace=wrap;html=1;" parent="1" vertex="1">
          <mxGeometry x="420" y="300" width="150" height="150" as="geometry" />
        </mxCell>
        <mxCell id="AFoxFzemWGuV3oYDkwgm-7" value="" style="ellipse;fillStyle=auto;fillColor=#99CCFF;" parent="1" vertex="1">
          <mxGeometry x="480" y="340" width="10" height="10" as="geometry" />
        </mxCell>
        <mxCell id="AFoxFzemWGuV3oYDkwgm-8" value="" style="ellipse;fillColor=#99CCFF;" parent="1" vertex="1">
          <mxGeometry x="480" y="400" width="10" height="10" as="geometry" />
        </mxCell>
        <mxCell id="AFoxFzemWGuV3oYDkwgm-9" value="&amp;nbsp;V" style="text;html=1;strokeColor=none;fillColor=none;align=left;verticalAlign=middle;whiteSpace=wrap;rounded=0;fontFamily=Times New Roman;fontSize=15;" parent="1" vertex="1">
          <mxGeometry x="490" y="330" width="50" height="30" as="geometry" />
        </mxCell>
        <mxCell id="AFoxFzemWGuV3oYDkwgm-10" value="&lt;div align=&quot;left&quot;&gt;&lt;font style=&quot;font-size: 15px;&quot; face=&quot;Times New Roman&quot;&gt;&amp;nbsp;V&lt;/font&gt;&lt;font style=&quot;font-size: 15px;&quot; face=&quot;Times New Roman&quot;&gt;+ΔV&amp;nbsp; &lt;br&gt;&lt;/font&gt;&lt;/div&gt;" style="text;html=1;strokeColor=none;fillColor=none;align=left;verticalAlign=middle;whiteSpace=wrap;rounded=0;" parent="1" vertex="1">
          <mxGeometry x="490" y="390" width="50" height="30" as="geometry" />
        </mxCell>
        <mxCell id="AFoxFzemWGuV3oYDkwgm-11" value="" style="endArrow=classic;html=1;exitX=1;exitY=0.5;exitDx=0;exitDy=0;entryX=0;entryY=0.5;entryDx=0;entryDy=0;curved=1;" parent="1" source="AFoxFzemWGuV3oYDkwgm-2" target="AFoxFzemWGuV3oYDkwgm-7" edge="1">
          <mxGeometry width="50" height="50" relative="1" as="geometry">
            <mxPoint x="410" y="420" as="sourcePoint" />
            <mxPoint x="460" y="370" as="targetPoint" />
            <Array as="points">
              <mxPoint x="390" y="310" />
            </Array>
          </mxGeometry>
        </mxCell>
        <mxCell id="AFoxFzemWGuV3oYDkwgm-12" value="" style="endArrow=classic;html=1;exitX=1;exitY=0.5;exitDx=0;exitDy=0;entryX=0;entryY=0.5;entryDx=0;entryDy=0;curved=1;" parent="1" source="AFoxFzemWGuV3oYDkwgm-3" target="AFoxFzemWGuV3oYDkwgm-8" edge="1">
          <mxGeometry width="50" height="50" relative="1" as="geometry">
            <mxPoint x="300" y="355" as="sourcePoint" />
            <mxPoint x="530" y="355" as="targetPoint" />
            <Array as="points">
              <mxPoint x="390" y="360" />
            </Array>
          </mxGeometry>
        </mxCell>
        <mxCell id="AFoxFzemWGuV3oYDkwgm-13" value="&lt;font face=&quot;Times New Roman&quot; size=&quot;1&quot;&gt;&lt;i&gt;&lt;font style=&quot;font-size: 15px;&quot;&gt;f&lt;/font&gt;&lt;/i&gt;&lt;/font&gt;" style="text;html=1;strokeColor=none;fillColor=none;align=center;verticalAlign=middle;whiteSpace=wrap;rounded=0;" parent="1" vertex="1">
          <mxGeometry x="330" y="290" width="110" height="30" as="geometry" />
        </mxCell>
        <mxCell id="AFoxFzemWGuV3oYDkwgm-15" value="" style="endArrow=none;dashed=1;html=1;dashPattern=1 3;strokeWidth=2;rounded=0;entryX=0.5;entryY=0;entryDx=0;entryDy=0;exitX=0.5;exitY=1;exitDx=0;exitDy=0;" parent="1" source="AFoxFzemWGuV3oYDkwgm-7" target="AFoxFzemWGuV3oYDkwgm-8" edge="1">
          <mxGeometry width="50" height="50" relative="1" as="geometry">
            <mxPoint x="450" y="380" as="sourcePoint" />
            <mxPoint x="500" y="330" as="targetPoint" />
          </mxGeometry>
        </mxCell>
        <mxCell id="AFoxFzemWGuV3oYDkwgm-16" value="" style="endArrow=none;dashed=1;html=1;dashPattern=1 3;strokeWidth=2;rounded=0;entryX=0.5;entryY=1;entryDx=0;entryDy=0;exitX=0.5;exitY=0;exitDx=0;exitDy=0;" parent="1" source="AFoxFzemWGuV3oYDkwgm-3" target="AFoxFzemWGuV3oYDkwgm-2" edge="1">
          <mxGeometry width="50" height="50" relative="1" as="geometry">
            <mxPoint x="270" y="410" as="sourcePoint" />
            <mxPoint x="320" y="360" as="targetPoint" />
          </mxGeometry>
        </mxCell>
        <mxCell id="AFoxFzemWGuV3oYDkwgm-17" value="&lt;font style=&quot;font-size: 15px;&quot; face=&quot;Times New Roman&quot;&gt;Δ&lt;/font&gt;U&amp;nbsp; " style="text;html=1;strokeColor=none;fillColor=none;align=right;verticalAlign=middle;whiteSpace=wrap;rounded=0;fontFamily=Times New Roman;fontSize=15;" parent="1" vertex="1">
          <mxGeometry x="240" y="360" width="40" height="30" as="geometry" />
        </mxCell>
        <mxCell id="AFoxFzemWGuV3oYDkwgm-18" value="&lt;div align=&quot;left&quot;&gt;&lt;font style=&quot;font-size: 15px;&quot; face=&quot;Times New Roman&quot;&gt;&amp;nbsp;&lt;/font&gt;&lt;font style=&quot;font-size: 15px;&quot; face=&quot;Times New Roman&quot;&gt;ΔV&amp;nbsp; &lt;br&gt;&lt;/font&gt;&lt;/div&gt;" style="text;html=1;strokeColor=none;fillColor=none;align=left;verticalAlign=middle;whiteSpace=wrap;rounded=0;" parent="1" vertex="1">
          <mxGeometry x="490" y="360" width="30" height="30" as="geometry" />
        </mxCell>
        <mxCell id="AFoxFzemWGuV3oYDkwgm-19" value="&lt;div align=&quot;left&quot;&gt;&lt;font style=&quot;font-size: 15px;&quot; face=&quot;Times New Roman&quot;&gt;Inherent error &lt;/font&gt;&lt;/div&gt;" style="text;html=1;strokeColor=none;fillColor=none;align=left;verticalAlign=middle;whiteSpace=wrap;rounded=0;" parent="1" vertex="1">
          <mxGeometry x="580" y="355" width="90" height="40" as="geometry" />
        </mxCell>
        <mxCell id="x--qwbr77Wqyja1BnvlK-2" value="" style="endArrow=classic;html=1;rounded=0;entryX=1;entryY=0.5;entryDx=0;entryDy=0;exitX=0;exitY=0.5;exitDx=0;exitDy=0;strokeWidth=2;" edge="1" parent="1" source="AFoxFzemWGuV3oYDkwgm-19" target="AFoxFzemWGuV3oYDkwgm-18">
          <mxGeometry width="50" height="50" relative="1" as="geometry">
            <mxPoint x="600" y="375" as="sourcePoint" />
            <mxPoint x="450" y="370" as="targetPoint" />
          </mxGeometry>
        </mxCell>
      </root>
    </mxGraphModel>
  </diagram>
</mxfile>
